<svg width="92" height="72" viewBox="0 0 92 72" fill="none" xmlns="http://www.w3.org/2000/svg">
    <path d="M54.2 3.90002C42.4 1.00002 30.3 1.70002 20.5 5.80002C10.6 9.90002 3.9 17.1 1.8 25.8C0.500002 31.3 1 37.2 3.5 42.9C5.9 48.6 10.1 53.9 15.7 58.4C15.6 61.1 14 65.1 10.3 71.4C22.5 67.9 31.6 68.2 36.5 68.8C37.1 69 37.7 69.1 38.3 69.3C50.1 72.2 62.2 71.5 72 67.4C81.9 63.3 88.6 56.1 90.7 47.4C91.7 43.1 91.6 38.6 90.3 34C89.1 29.5 86.7 25.1 83.3 21.1C79.9 17.1 75.6 13.5 70.6 10.5C65.6 7.60002 60 5.30002 54.2 3.90002Z" fill="#004A9D"/>
    <path d="M51.3 1.70002C45.7 0.300024 39.9 -0.199976 34.3 0.100024C28.7 0.500024 23.4 1.60002 18.7 3.60002C14 5.60002 10 8.30002 6.9 11.6C3.8 14.9 1.7 18.8 0.699996 22.9C-0.600004 28.2 -4.29153e-06 33.9 2.3 39.4C4.7 44.9 8.79999 50.1 14.2 54.4C14.1 57 12.6 60.9 8.89999 67C20.7 63.6 29.5 63.9 34.2 64.5C34.8 64.6 35.3 64.8 35.9 64.9C41.5 66.3 47.3 66.8 52.9 66.5C58.5 66.1 63.8 65 68.5 63C73.2 61 77.2 58.3 80.3 55C83.4 51.7 85.5 47.8 86.5 43.7C87.5 39.6 87.4 35.2 86.2 30.8C84.9 26.5 82.6 22.2 79.3 18.3C76.1 14.4 71.9 10.9 67.1 8.10002C62.2 5.20002 56.8 3.10002 51.2 1.70002H51.3Z" fill="white"/>
    <path d="M17.988 13.8216L18.9905 14.2745C19.3246 14.4255 19.5295 14.4617 19.6052 14.3833L19.267 8.90724C19.2693 8.88418 19.2766 8.85928 19.2886 8.83254C19.3878 8.68423 19.5076 8.64178 19.6479 8.70519L21.743 9.65181C21.8834 9.71522 21.954 9.84373 21.9551 10.0373L21.9951 12.4333L23.6291 10.7937C23.7684 10.6635 23.9183 10.6347 24.0787 10.7071L26.1537 11.6447C26.2138 11.6719 26.2567 11.7194 26.2824 11.7873C26.311 11.8486 26.3133 11.9059 26.2891 11.9594C26.265 12.0128 26.2465 12.0447 26.2338 12.0551L22.1329 15.815C21.417 16.4733 20.8034 16.8519 20.2919 16.9508C19.7872 17.0527 19.1138 16.9134 18.2718 16.5329L17.0188 15.9668C16.9453 15.9335 16.8939 15.8781 16.8645 15.8005C16.8352 15.7229 16.8372 15.6473 16.8704 15.5738L17.5951 13.9699C17.6283 13.8964 17.6837 13.845 17.7613 13.8157C17.839 13.7864 17.9145 13.7883 17.988 13.8216ZM29.0433 21.3998L27.2489 20.589C27.1754 20.5558 27.124 20.5004 27.0947 20.4228C27.0654 20.3452 27.0673 20.2696 27.1006 20.1961L27.7709 18.7125L26.6983 18.2279L26.028 19.7115C25.9947 19.785 25.9393 19.8364 25.8617 19.8657C25.7841 19.895 25.7085 19.893 25.635 19.8598L23.8407 19.0491C23.7672 19.0159 23.7158 18.9605 23.6864 18.8828C23.6571 18.8052 23.6591 18.7297 23.6923 18.6562L25.8029 13.9848C25.8362 13.9113 25.8916 13.8599 25.9692 13.8306C26.0468 13.8013 26.1224 13.8033 26.1959 13.8365L27.9902 14.6472C28.0637 14.6804 28.1152 14.7358 28.1445 14.8135C28.1738 14.8911 28.1718 14.9667 28.1386 15.0402L27.4909 16.4736L28.5635 16.9583L29.2112 15.5248C29.2444 15.4513 29.2998 15.3999 29.3774 15.3706C29.4551 15.3413 29.5306 15.3432 29.6041 15.3764L31.3985 16.1872C31.472 16.2204 31.5234 16.2758 31.5527 16.3534C31.582 16.431 31.5801 16.5066 31.5468 16.5801L29.4362 21.2514C29.403 21.3249 29.3476 21.3763 29.27 21.4056C29.1923 21.435 29.1168 21.433 29.0433 21.3998ZM35.5876 24.3567L33.7933 23.546C33.7198 23.5128 33.6684 23.4573 33.6391 23.3797C33.6097 23.3021 33.6117 23.2265 33.6449 23.153L34.3832 21.5191L32.4497 22.8061C32.363 22.8555 32.2696 22.8575 32.1693 22.8122L30.375 22.0015C30.3015 21.9683 30.2501 21.9129 30.2208 21.8353C30.1982 21.7607 30.2034 21.6866 30.2367 21.6131L32.3473 16.9418C32.3805 16.8683 32.4359 16.8169 32.5136 16.7876C32.5912 16.7582 32.6667 16.7602 32.7402 16.7934L34.5346 17.6042C34.6081 17.6374 34.6595 17.6928 34.6888 17.7704C34.7181 17.848 34.7162 17.9236 34.683 17.9971L33.9447 19.6311L35.8591 18.3595C35.9518 18.2968 36.0483 18.2881 36.1485 18.3334L37.9428 19.1441C38.0163 19.1773 38.0678 19.2327 38.0971 19.3104C38.1264 19.388 38.1244 19.4635 38.0912 19.537L35.9806 24.2084C35.9474 24.2819 35.8919 24.3333 35.8143 24.3626C35.7367 24.3919 35.6611 24.3899 35.5876 24.3567ZM41.2712 23.0742L42.0593 21.33C42.0925 21.2565 42.148 21.205 42.2256 21.1757C42.3032 21.1464 42.3788 21.1484 42.4523 21.1816L44.407 22.0648C44.4805 22.098 44.5319 22.1534 44.5612 22.2311C44.5905 22.3087 44.5886 22.3842 44.5554 22.4578L42.4447 27.1291C42.4115 27.2026 42.3561 27.254 42.2785 27.2833C42.2009 27.3126 42.1253 27.3106 42.0518 27.2774L40.097 26.3942C40.0235 26.361 39.9721 26.3056 39.9428 26.228C39.9135 26.1503 39.9155 26.0748 39.9487 26.0013L40.3699 25.069L40.009 24.906C39.0601 24.4772 38.4229 23.964 38.0974 23.3663C37.775 22.7619 37.801 22.0454 38.1754 21.2167L38.7914 19.8534C38.8246 19.7799 38.88 19.7285 38.9577 19.6992C39.0353 19.6699 39.1108 19.6718 39.1844 19.7051L41.0489 20.5475C41.1224 20.5807 41.1738 20.6361 41.2031 20.7138C41.2324 20.7914 41.2304 20.8669 41.1972 20.9404L40.613 22.2336C40.4771 22.5343 40.5762 22.7602 40.9104 22.9111L41.2712 23.0742ZM45.3497 22.4907L50.3117 24.7327C50.3852 24.7659 50.4366 24.8213 50.4659 24.899C50.4952 24.9766 50.4933 25.0522 50.46 25.1257L49.912 26.3386C49.8788 26.4121 49.8234 26.4635 49.7458 26.4928C49.6681 26.5221 49.5926 26.5202 49.5191 26.487L48.1858 25.8846L46.7455 29.0723C46.7123 29.1458 46.6569 29.1972 46.5793 29.2265C46.5017 29.2558 46.4261 29.2539 46.3526 29.2207L44.5983 28.428C44.5248 28.3948 44.4734 28.3394 44.4441 28.2618C44.4148 28.1842 44.4168 28.1086 44.45 28.0351L45.8903 24.8474L44.557 24.245C44.4835 24.2118 44.4321 24.1563 44.4028 24.0787C44.3735 24.0011 44.3755 23.9255 44.4087 23.852L44.9567 22.6391C44.9899 22.5656 45.0454 22.5142 45.123 22.4849C45.2006 22.4556 45.2762 22.4575 45.3497 22.4907ZM49.5047 27.9169L49.8127 27.2352C50.1569 26.4734 50.6918 26.0109 51.4173 25.8479C52.1428 25.6848 52.9332 25.7965 53.7886 26.183C54.644 26.5695 55.2503 27.0889 55.6074 27.7411C55.9645 28.3933 55.971 29.1004 55.6268 29.8622L55.3188 30.5439C54.9715 31.3124 54.4452 31.7827 53.7397 31.9549C53.0373 32.1203 52.2383 32.0007 51.3428 31.5961C50.4473 31.1915 49.8295 30.6709 49.4894 30.0344C49.1524 29.3913 49.1575 28.6854 49.5047 27.9169ZM52.8266 29.5144L53.2071 28.6724C53.3218 28.4184 53.3684 28.2262 53.3469 28.0958C53.3253 27.9653 53.231 27.8624 53.064 27.7869C52.8969 27.7114 52.7573 27.7087 52.6452 27.7787C52.533 27.8488 52.4196 28.0108 52.3049 28.2647L51.9244 29.1068C51.8036 29.3741 51.7555 29.5696 51.7801 29.6934C51.8046 29.8171 51.9004 29.9167 52.0675 29.9922C52.2346 30.0677 52.3742 30.0704 52.4863 30.0004C52.5984 29.9303 52.7119 29.7683 52.8266 29.5144ZM60.0605 29.4635C60.0938 29.3899 60.1492 29.3385 60.2268 29.3092C60.3044 29.2799 60.38 29.2819 60.4535 29.3151L62.0072 30.0171C62.0808 30.0503 62.1322 30.1058 62.1615 30.1834C62.1908 30.261 62.1888 30.3366 62.1556 30.4101L61.4581 31.9538L62.9828 30.6631C63.101 30.5797 63.2235 30.5667 63.3505 30.624L65.0747 31.4031C65.1415 31.4333 65.1877 31.4823 65.2134 31.5502C65.239 31.6182 65.2383 31.6822 65.2111 31.7423C65.1839 31.8025 65.143 31.8484 65.0885 31.8801L63.1327 33.3502L63.3281 36.4441C63.3367 36.4963 63.3274 36.5524 63.3003 36.6126C63.2761 36.666 63.2301 36.7056 63.1622 36.7312C63.0942 36.7569 63.0269 36.7546 62.96 36.7244L61.1557 35.9091C61.022 35.8487 60.9441 35.7451 60.9219 35.5983L60.8602 33.277L60.045 35.0814C60.0118 35.1549 59.9563 35.2063 59.8787 35.2356C59.8011 35.2649 59.7255 35.263 59.652 35.2297L58.0983 34.5277C58.0248 34.4945 57.9733 34.4391 57.944 34.3615C57.9147 34.2838 57.9167 34.2083 57.9499 34.1348L58.7606 32.3404L56.9924 33.8228C56.8676 33.9032 56.7383 33.9132 56.6047 33.8528L54.8003 33.0376C54.7335 33.0074 54.6872 32.9583 54.6616 32.8904C54.6359 32.8225 54.6352 32.7618 54.6593 32.7083C54.6865 32.6482 54.7225 32.6041 54.7674 32.5761L57.2038 30.6834L57.0089 28.2295C56.9967 28.1676 57.0041 28.1066 57.0313 28.0465C57.0585 27.9863 57.106 27.9434 57.1739 27.9178C57.2418 27.8921 57.3092 27.8944 57.376 27.9246L59.1002 28.7036C59.2272 28.761 59.2984 28.8616 59.3139 29.0054L59.3585 31.0172L60.0605 29.4635ZM69.073 39.4864L67.2786 38.6757C67.2051 38.6424 67.1537 38.587 67.1244 38.5094C67.0951 38.4318 67.097 38.3562 67.1302 38.2827L67.8685 36.6488L65.9351 37.9358C65.8484 37.9852 65.7549 37.9872 65.6547 37.9419L63.8603 37.1312C63.7868 37.098 63.7354 37.0426 63.7061 36.9649C63.6835 36.8903 63.6888 36.8163 63.722 36.7428L65.8326 32.0715C65.8658 31.998 65.9213 31.9465 65.9989 31.9172C66.0765 31.8879 66.1521 31.8899 66.2256 31.9231L68.0199 32.7338C68.0934 32.767 68.1448 32.8225 68.1741 32.9001C68.2035 32.9777 68.2015 33.0533 68.1683 33.1268L67.43 34.7607L69.3444 33.4892C69.4371 33.4265 69.5336 33.4178 69.6338 33.463L71.4282 34.2738C71.5017 34.307 71.5531 34.3624 71.5824 34.44C71.6117 34.5177 71.6097 34.5932 71.5765 34.6667L69.4659 39.338C69.4327 39.4115 69.3773 39.463 69.2996 39.4923C69.222 39.5216 69.1465 39.5196 69.073 39.4864ZM77.2207 36.891L78.9349 37.6655C78.995 37.6927 79.0361 37.7354 79.058 37.7936C79.08 37.8518 79.0789 37.9077 79.0548 37.9611L76.8807 42.7728C76.8566 42.8262 76.8154 42.864 76.7572 42.8859C76.699 42.9079 76.6398 42.9053 76.5796 42.8781L74.6951 42.0266C74.6349 41.9995 74.5939 41.9568 74.5719 41.8986C74.5566 41.8434 74.561 41.789 74.5852 41.7356L75.328 40.0916L74.4644 40.6671C74.3269 40.7578 74.208 40.7805 74.1077 40.7352L73.5864 40.4997C73.4795 40.4514 73.4146 40.3456 73.3918 40.1824L73.263 39.1586L72.5202 40.8025C72.496 40.856 72.4548 40.8937 72.3966 40.9157C72.3384 40.9377 72.2826 40.9366 72.2291 40.9124L70.3445 40.0609C70.2911 40.0368 70.2534 39.9956 70.2314 39.9374C70.2094 39.8792 70.2105 39.8233 70.2346 39.7699L72.4087 34.9582C72.4328 34.9048 72.474 34.867 72.5322 34.8451C72.5905 34.8231 72.6463 34.8242 72.6998 34.8483L74.4139 35.6228C74.5476 35.6832 74.6243 35.7984 74.6441 35.9683L74.9205 38.2417L76.8093 36.9466C76.9499 36.8492 77.087 36.8306 77.2207 36.891ZM23.6603 34.3303L21.866 33.5196C21.7925 33.4864 21.7411 33.431 21.7118 33.3534C21.6825 33.2757 21.6844 33.2002 21.7176 33.1267L22.4559 31.4927L20.5224 32.7798C20.4358 32.8291 20.3423 32.8312 20.2421 32.7859L18.4477 31.9751C18.3742 31.9419 18.3228 31.8865 18.2935 31.8089C18.2709 31.7343 18.2762 31.6602 18.3094 31.5867L20.42 26.9154C20.4532 26.8419 20.5086 26.7905 20.5863 26.7612C20.6639 26.7319 20.7395 26.7338 20.813 26.767L22.6073 27.5778C22.6808 27.611 22.7322 27.6664 22.7615 27.744C22.7908 27.8216 22.7889 27.8972 22.7557 27.9707L22.0174 29.6047L23.9318 28.3331C24.0245 28.2704 24.121 28.2617 24.2212 28.307L26.0156 29.1177C26.0891 29.1509 26.1405 29.2064 26.1698 29.284C26.1991 29.3616 26.1971 29.4372 26.1639 29.5107L24.0533 34.182C24.0201 34.2555 23.9646 34.3069 23.887 34.3362C23.8094 34.3655 23.7338 34.3636 23.6603 34.3303ZM30.693 37.0613C30.7047 37.1068 30.6969 37.1596 30.6697 37.2198C30.6426 37.2799 30.595 37.3228 30.5271 37.3485C30.4592 37.3741 30.3918 37.3718 30.325 37.3416L28.4003 36.472C28.28 36.4177 28.2055 36.3156 28.1766 36.1657L27.9543 34.8944L26.8233 35.5543C26.6985 35.6347 26.5726 35.6462 26.4456 35.5888L24.5711 34.7418C24.5042 34.7116 24.458 34.6626 24.4323 34.5947C24.4067 34.5268 24.4075 34.4627 24.4346 34.4026C24.4618 34.3424 24.4963 34.3017 24.5382 34.2804L27.2083 32.6985L26.7386 29.8911C26.73 29.8389 26.7378 29.7861 26.762 29.7326C26.7891 29.6725 26.8367 29.6296 26.9046 29.6039C26.9725 29.5783 27.0399 29.5806 27.1067 29.6107L28.9411 30.4396C29.0681 30.497 29.1464 30.6088 29.1759 30.775L29.3542 31.9299L30.3387 31.3004C30.4829 31.2127 30.6185 31.1975 30.7455 31.2549L32.4998 32.0475C32.5666 32.0777 32.6128 32.1267 32.6385 32.1947C32.6641 32.2626 32.6633 32.3266 32.6362 32.3867C32.612 32.4402 32.5775 32.481 32.5327 32.509L30.0898 33.9884L30.693 37.0613ZM36.8171 40.275L33.9401 38.9751C33.8666 38.9419 33.8152 38.8864 33.7859 38.8088C33.7566 38.7312 33.7586 38.6556 33.7918 38.5821L35.9024 33.9108C35.9356 33.8373 35.991 33.7859 36.0687 33.7566C36.1463 33.7273 36.2218 33.7292 36.2954 33.7625L38.9718 34.9718C40.7161 35.7599 41.3526 36.6752 40.8816 37.7177C40.7065 38.1053 40.4063 38.36 39.9811 38.4817C40.3044 38.9416 40.3619 39.4021 40.1536 39.8632C39.6735 40.9258 38.5613 41.0631 36.8171 40.275ZM36.7664 37.9828L36.5354 38.494L37.2371 38.8111C37.4109 38.8896 37.5402 38.9239 37.6252 38.914C37.7101 38.9041 37.7752 38.849 37.8205 38.7487C37.893 38.5884 37.7755 38.4387 37.4681 38.2998L36.7664 37.9828ZM37.6496 36.028L37.4186 36.5393L38.1203 36.8563C38.4277 36.9952 38.6177 36.9845 38.6901 36.8241C38.7354 36.7238 38.7337 36.6386 38.685 36.5683C38.6363 36.498 38.5251 36.4236 38.3513 36.3451L37.6496 36.028ZM43.5717 39.766L43.2546 40.4677C43.1519 40.6949 43.108 40.8722 43.1229 40.9997C43.1377 41.1271 43.2087 41.2195 43.3356 41.2768C43.4626 41.3342 43.5585 41.3534 43.6234 41.3345C43.6914 41.3088 43.7759 41.2464 43.877 41.1473C43.9878 41.0444 44.1134 41.0247 44.2538 41.0882L46.2085 41.9714C46.282 42.0046 46.3334 42.06 46.3627 42.1376C46.392 42.2152 46.3871 42.2975 46.3478 42.3844C46.3086 42.4712 46.2256 42.5746 46.0991 42.6944C45.9725 42.8143 45.7934 42.9346 45.5618 43.0552C45.3303 43.1759 45.0713 43.2682 44.785 43.3319C44.5017 43.389 44.1622 43.3925 43.7663 43.3424C43.3705 43.2923 42.9621 43.1722 42.5411 42.9819C41.7057 42.6045 41.1256 42.0808 40.8006 41.4109C40.4853 40.7374 40.5028 40.013 40.853 39.2378L41.0614 38.7766C41.4116 38.0014 41.9422 37.5129 42.653 37.311C43.3736 37.1055 44.1515 37.1914 44.9869 37.5688C45.4814 37.7923 45.8944 38.0714 46.226 38.4063C46.5605 38.7345 46.7849 39.0572 46.8991 39.3743C47.023 39.6878 47.0949 39.9738 47.115 40.2323C47.135 40.4908 47.1193 40.6769 47.068 40.7905C47.0196 40.8974 46.9567 40.9655 46.8791 40.9948C46.8014 41.0242 46.7259 41.0222 46.6524 40.989L44.6976 40.1058C44.5707 40.0484 44.504 39.9378 44.4975 39.7739C44.4945 39.5312 44.4162 39.3751 44.2625 39.3056C43.9952 39.1849 43.7649 39.3383 43.5717 39.766ZM52.3251 44.8557L49.3378 43.506L49.3152 43.5561C49.131 43.9638 49.1692 44.2265 49.4299 44.3442C49.5034 44.3775 49.6177 44.3648 49.773 44.3061C49.9282 44.2475 50.0693 44.2469 50.1963 44.3043L52.0909 45.1603C52.2379 45.2267 52.2782 45.3335 52.2118 45.4805C52.0638 45.8079 51.6626 46.037 51.008 46.1678C50.3601 46.3016 49.6152 46.1782 48.7731 45.7978C47.9378 45.4203 47.3509 44.8936 47.0125 44.2177C46.6839 43.5381 46.6932 42.814 47.0404 42.0455L47.2578 41.5643C47.587 40.8359 48.1248 40.3667 48.8715 40.1569C49.6211 39.9404 50.4337 40.0299 51.3091 40.4254C52.1913 40.824 52.7567 41.3893 53.0053 42.1213C53.2607 42.8563 53.2102 43.6181 52.8539 44.4066L52.718 44.7074C52.6848 44.7809 52.6294 44.8323 52.5518 44.8616C52.4741 44.8909 52.3986 44.8889 52.3251 44.8557ZM50.7241 42.5752C50.9052 42.1742 50.8622 41.9134 50.5948 41.7926C50.3275 41.6718 50.1033 41.8119 49.9221 42.2129L49.904 42.253L50.7059 42.6153L50.7241 42.5752ZM58.295 49.5327C58.3066 49.5782 58.2989 49.631 58.2717 49.6912C58.2445 49.7513 58.197 49.7942 58.1291 49.8199C58.0611 49.8455 57.9938 49.8432 57.9269 49.813L56.0023 48.9434C55.882 48.8891 55.8074 48.787 55.7785 48.6371L55.5563 47.3658L54.4253 48.0257C54.3004 48.1061 54.1745 48.1176 54.0475 48.0602L52.173 47.2132C52.1062 47.183 52.0599 47.134 52.0343 47.0661C52.0087 46.9981 52.0094 46.9341 52.0366 46.874C52.0638 46.8138 52.0983 46.7731 52.1401 46.7517L54.8103 45.1699L54.3406 42.3625C54.332 42.3103 54.3398 42.2575 54.3639 42.204C54.3911 42.1438 54.4386 42.101 54.5065 42.0753C54.5745 42.0497 54.6418 42.0519 54.7087 42.0821L56.5431 42.911C56.6701 42.9684 56.7483 43.0802 56.7778 43.2464L56.9561 44.4012L57.9406 43.7718C58.0849 43.6841 58.2205 43.6689 58.3475 43.7263L60.1017 44.5189C60.1685 44.5491 60.2148 44.5981 60.2404 44.6661C60.2661 44.734 60.2653 44.798 60.2381 44.8581C60.214 44.9116 60.1795 44.9523 60.1346 44.9804L57.6918 46.4598L58.295 49.5327ZM60.349 48.1553L62.003 48.9026C62.0631 48.9298 62.1027 48.9758 62.1216 49.0407C62.1503 49.1019 62.1541 49.1559 62.1329 49.2027C62.1148 49.2428 62.0979 49.2714 62.0821 49.2884L60.0383 51.274C59.8615 51.4516 59.6595 51.4891 59.4322 51.3864L58.3496 50.8972C58.2895 50.8701 58.2466 50.8225 58.2209 50.7546C58.199 50.6964 58.2016 50.6372 58.2287 50.5771L58.2378 50.557L59.6912 48.3288C59.7498 48.2346 59.8407 48.167 59.9638 48.1261C60.0936 48.0882 60.222 48.0979 60.349 48.1553ZM30.5819 44.0088L32.0153 44.6565C32.0889 44.6897 32.1403 44.7451 32.1696 44.8227C32.1989 44.9004 32.1818 45.0093 32.1184 45.1497C32.058 45.2833 31.9788 45.3964 31.8807 45.4889C31.7923 45.5777 31.6801 45.6477 31.5443 45.699C31.4115 45.7436 31.222 45.8069 30.9757 45.8887C30.7392 45.967 30.5594 46.0265 30.4363 46.0675C30.0803 46.1963 29.7447 46.3425 29.4295 46.5058C30.2394 46.9039 30.8096 47.4231 31.14 48.0632C31.4703 48.7034 31.4695 49.391 31.1373 50.1261L31.0558 50.3066C30.7086 51.0751 30.1822 51.5454 29.4768 51.7176C28.7743 51.883 27.9754 51.7634 27.0799 51.3588C26.1844 50.9542 25.5666 50.4337 25.2265 49.7972C24.8894 49.154 24.8945 48.4481 25.2417 47.6796L25.518 47.0681C25.7082 46.6471 25.9499 46.2815 26.2429 45.9713C26.5457 45.6575 26.8532 45.4222 27.1654 45.2655C27.4806 45.1022 27.8065 44.9597 28.143 44.8382C28.4826 44.71 28.7907 44.6158 29.0673 44.5557C29.7116 44.4122 30.1087 44.2457 30.2588 44.056C30.2806 44.0256 30.3224 44.0042 30.3843 43.992C30.4492 43.973 30.515 43.9786 30.5819 44.0088ZM28.5953 49.2069L28.6769 49.0265C28.9094 48.5119 28.8752 48.1867 28.5745 48.0508C28.2738 47.9149 28.0072 48.1043 27.7747 48.6189L27.6931 48.7993C27.5693 49.0733 27.5152 49.2822 27.5307 49.426C27.5462 49.5698 27.6341 49.6779 27.7945 49.7504C27.9616 49.8259 28.1057 49.8186 28.2269 49.7285C28.3548 49.6414 28.4776 49.4676 28.5953 49.2069ZM37.8374 52.4895L37.4795 53.2815C37.1414 54.0299 36.6827 54.5107 36.1036 54.7238C35.5245 54.937 34.9442 54.9122 34.3628 54.6495C33.7881 54.3898 33.3979 54.0244 33.1923 53.5533L32.2819 55.5682C32.2487 55.6417 32.1933 55.6931 32.1157 55.7224C32.0381 55.7517 31.9625 55.7498 31.889 55.7165L30.0345 54.8786C29.961 54.8454 29.9096 54.79 29.8803 54.7124C29.851 54.6348 29.8529 54.5592 29.8861 54.4857L32.8619 47.8997C32.8951 47.8262 32.9505 47.7748 33.0281 47.7455C33.1057 47.7162 33.1813 47.7182 33.2548 47.7514L34.9589 48.5213C35.0324 48.5546 35.0839 48.61 35.1132 48.6876C35.1425 48.7652 35.1405 48.8408 35.1073 48.9143L34.9714 49.215C35.5212 48.9243 36.1136 48.9223 36.7485 49.2092C37.3833 49.4961 37.8118 49.919 38.034 50.4781C38.2592 51.0305 38.1937 51.701 37.8374 52.4895ZM34.3518 50.9871L34.0166 51.7289C33.8857 52.0721 33.9773 52.3146 34.2914 52.4566C34.6255 52.6075 34.8802 52.4892 35.0553 52.1016L35.3542 51.44C35.5294 51.0524 35.4499 50.7831 35.1157 50.6321C34.7816 50.4812 34.5269 50.5995 34.3518 50.9871ZM38.0074 53.4475L38.3154 52.7659C38.6596 52.004 39.1945 51.5416 39.92 51.3785C40.6455 51.2154 41.4359 51.3271 42.2913 51.7136C43.1467 52.1001 43.753 52.6195 44.1101 53.2717C44.4672 53.924 44.4737 54.631 44.1294 55.3928L43.8215 56.0745C43.4742 56.843 42.9479 57.3133 42.2424 57.4855C41.54 57.6509 40.741 57.5313 39.8455 57.1267C38.95 56.7221 38.3322 56.2016 37.9921 55.5651C37.6551 54.9219 37.6601 54.216 38.0074 53.4475ZM41.3293 55.045L41.7097 54.203C41.8245 53.949 41.8711 53.7568 41.8495 53.6264C41.828 53.496 41.7337 53.393 41.5666 53.3175C41.3996 53.242 41.26 53.2393 41.1478 53.3094C41.0357 53.3794 40.9223 53.5414 40.8076 53.7953L40.4271 54.6374C40.3063 54.9047 40.2582 55.1002 40.2828 55.224C40.3073 55.3477 40.4031 55.4474 40.5702 55.5228C40.7373 55.5983 40.8769 55.6011 40.989 55.531C41.1011 55.461 41.2145 55.299 41.3293 55.045ZM44.8068 56.4956L46.551 57.2836C46.6245 57.3169 46.6759 57.3723 46.7052 57.4499C46.7345 57.5275 46.7326 57.6031 46.6994 57.6766L45.9113 59.4208C45.8781 59.4943 45.8226 59.5457 45.745 59.575C45.6674 59.6043 45.5918 59.6024 45.5183 59.5692L43.7741 58.7811C43.7006 58.7479 43.6492 58.6925 43.6199 58.6148C43.5906 58.5372 43.5925 58.4616 43.6257 58.3881L44.4138 56.6439C44.4471 56.5704 44.5025 56.519 44.5801 56.4897C44.6577 56.4604 44.7333 56.4623 44.8068 56.4956ZM46.9446 51.7641L48.6888 52.5522C48.7623 52.5854 48.8137 52.6408 48.843 52.7184C48.8724 52.7961 48.8704 52.8716 48.8372 52.9451L47.1251 56.7343C47.0919 56.8078 47.0365 56.8592 46.9589 56.8885C46.8813 56.9178 46.8057 56.9159 46.7322 56.8827L44.988 56.0946C44.9144 56.0614 44.863 56.006 44.8337 55.9283C44.8044 55.8507 44.8064 55.7751 44.8396 55.7016L46.5517 51.9125C46.5849 51.839 46.6403 51.7875 46.7179 51.7582C46.7955 51.7289 46.8711 51.7309 46.9446 51.7641Z" fill="#004A9D"/>
</svg>
