<svg xmlns="http://www.w3.org/2000/svg" width="92" height="72" viewBox="0 0 92 72" fill="none"><style>.a{fill:#FF3149;}</style><path d="M54.2 3.9C42.4 1 30.3 1.7 20.5 5.8 10.6 9.9 3.9 17.1 1.8 25.8 0.5 31.3 1 37.2 3.5 42.9 5.9 48.6 10.1 53.9 15.7 58.4 15.6 61.1 14 65.1 10.3 71.4 22.5 67.9 31.6 68.2 36.5 68.8 37.1 69 37.7 69.1 38.3 69.3 50.1 72.2 62.2 71.5 72 67.4 81.9 63.3 88.6 56.1 90.7 47.4 91.7 43.1 91.6 38.6 90.3 34 89.1 29.5 86.7 25.1 83.3 21.1 79.9 17.1 75.6 13.5 70.6 10.5 65.6 7.6 60 5.3 54.2 3.9Z" fill="#B02334"/><path d="M51.3 1.7C45.7 0.3 39.9-0.2 34.3 0.1 28.7 0.5 23.4 1.6 18.7 3.6 14 5.6 10 8.3 6.9 11.6 3.8 14.9 1.7 18.8 0.7 22.9 -0.6 28.2 0 33.9 2.3 39.4 4.7 44.9 8.8 50.1 14.2 54.4 14.1 57 12.6 60.9 8.9 67 20.7 63.6 29.5 63.9 34.2 64.5 34.8 64.6 35.3 64.8 35.9 64.9 41.5 66.3 47.3 66.8 52.9 66.5 58.5 66.1 63.8 65 68.5 63 73.2 61 77.2 58.3 80.3 55 83.4 51.7 85.5 47.8 86.5 43.7 87.5 39.6 87.4 35.2 86.2 30.8 84.9 26.5 82.6 22.2 79.3 18.3 76.1 14.4 71.9 10.9 67.1 8.1 62.2 5.2 56.8 3.1 51.2 1.7H51.3Z" fill="white"/><path d="M33.1 27.4L32.2 27.2 33.1 24 29.6 23.1 28.8 26.2 27.9 26 29.7 19.1 30.6 19.4 29.8 22.3 33.3 23.2 34.1 20.3 35 20.5 33.1 27.4ZM37.8 28.6C37.7 28.5 37.7 28.3 37.8 28.1 37.3 28.4 36.7 28.5 36.2 28.3 35.7 28.2 35.3 27.9 35 27.6 34.8 27.2 34.7 26.8 34.8 26.3 35 25.8 35.3 25.4 35.8 25.3 36.3 25.1 36.9 25.1 37.6 25.3L38.4 25.5 38.6 25.1C38.6 24.8 38.6 24.5 38.5 24.3 38.3 24.1 38.1 23.9 37.7 23.8 37.4 23.7 37.1 23.7 36.9 23.8 36.6 23.9 36.5 24.1 36.4 24.3L35.5 24.1C35.6 23.8 35.8 23.6 36 23.4 36.3 23.2 36.6 23.1 36.9 23.1 37.3 23 37.6 23 38 23.1 38.6 23.3 39 23.6 39.2 23.9 39.5 24.3 39.6 24.8 39.4 25.3L38.8 27.6C38.7 28.1 38.6 28.5 38.7 28.8L38.7 28.9 37.8 28.6ZM36.5 27.6C36.8 27.7 37 27.7 37.3 27.6 37.6 27.5 37.8 27.4 38 27.2L38.3 26.1 37.6 25.9C36.5 25.7 35.9 25.8 35.7 26.4 35.7 26.7 35.7 27 35.8 27.2 36 27.4 36.2 27.5 36.5 27.6ZM44.5 28.1L43.9 27.9 43.3 30.1 42.4 29.9 43 27.7 42.4 27.5 40.4 29.3 39.3 29 41.8 26.9 40.8 24 41.9 24.3 42.6 26.7 43.2 26.9 43.8 24.8 44.7 25 44.1 27.1 44.7 27.3 46.6 25.5 47.7 25.8 45.3 27.8 46.5 31 45.4 30.7 44.5 28.1ZM50.5 30.8L53.3 27.3 54.4 27.6 53 32.7 52.1 32.5 53.1 28.8 50.5 32 49.9 31.9 49.2 27.6 48.2 31.4 47.3 31.2 48.7 26.1 49.8 26.4 50.5 30.8ZM59.1 28.9L60 29.1 58.6 34.2 57.7 34 58.7 30.3 55.4 33.4 54.5 33.1 55.9 28 56.7 28.3 55.7 32 59.1 28.9Z" class="a"/><path d="M12.1 27.8L13 28 11.6 33.1 10.7 32.9 11.7 29.1 8.4 32.2 7.5 32 8.9 26.9 9.7 27.1 8.7 30.8 12.1 27.8ZM19.6 35.2L18.7 35 19.9 30.6 17.5 30 16.4 34.4 15.5 34.1 16.8 29 20.9 30.1 19.6 35.2ZM21.4 32.9C21.6 32.4 21.8 32 22.1 31.7 22.4 31.3 22.8 31.1 23.2 31 23.6 30.8 24 30.8 24.5 31 25.2 31.1 25.6 31.5 25.9 32.1 26.2 32.7 26.3 33.4 26.1 34.2L26.1 34.3C25.9 34.8 25.7 35.2 25.4 35.6 25.1 35.9 24.8 36.1 24.4 36.3 23.9 36.4 23.5 36.4 23 36.3 22.4 36.1 21.9 35.7 21.6 35.1 21.3 34.5 21.2 33.8 21.4 33L21.4 32.9ZM22.3 33.3C22.1 33.8 22.1 34.3 22.3 34.7 22.5 35.2 22.8 35.4 23.2 35.5 23.7 35.7 24.1 35.6 24.4 35.3 24.8 35 25 34.6 25.2 34 25.4 33.4 25.4 32.9 25.2 32.5 25 32.1 24.7 31.8 24.3 31.7 23.8 31.6 23.4 31.6 23.1 31.9 22.7 32.2 22.5 32.6 22.3 33.3ZM31.5 35.7C31.3 36.5 30.9 37.1 30.4 37.5 29.9 37.9 29.4 38 28.8 37.8 28.2 37.6 27.7 37.3 27.5 36.8L26.8 39.3 26 39 27.9 32 28.7 32.2 28.5 32.8C29 32.4 29.6 32.3 30.2 32.5 30.8 32.7 31.2 33 31.5 33.6 31.7 34.1 31.7 34.8 31.5 35.7L31.5 35.7ZM30.6 35.4C30.8 34.8 30.8 34.3 30.6 33.9 30.5 33.5 30.2 33.3 29.7 33.2 29.2 33 28.8 33.2 28.4 33.6L27.7 36C27.8 36.5 28.2 36.9 28.7 37 29.1 37.1 29.5 37 29.9 36.8 30.2 36.5 30.4 36.1 30.6 35.4ZM32 38.6L33.4 33.4 35.3 34C36 34.2 36.5 34.4 36.8 34.8 37.1 35.1 37.2 35.5 37.1 35.9 37 36.2 36.9 36.4 36.7 36.5 36.5 36.7 36.3 36.8 36 36.8 36.2 37 36.5 37.2 36.6 37.4 36.7 37.7 36.7 38 36.7 38.3 36.5 38.7 36.3 39 35.9 39.2 35.4 39.3 34.9 39.3 34.3 39.2L32 38.6ZM33.5 36.5L33.1 38.1 34.5 38.5C34.9 38.6 35.1 38.6 35.4 38.5 35.6 38.4 35.7 38.2 35.8 38 35.9 37.5 35.6 37.1 34.9 36.9L33.5 36.5ZM33.7 35.8L34.8 36.1C35.6 36.4 36.1 36.2 36.2 35.8 36.3 35.3 36 34.9 35.2 34.7L34 34.4 33.7 35.8ZM42.1 35.8L43 36 41.6 41.1 40.7 40.9 41.7 37.2 38.4 40.3 37.5 40 38.9 34.9 39.7 35.2 38.7 38.9 42.1 35.8ZM45.7 39.5C46 38.7 46.3 38.1 46.8 37.7 47.2 37.3 47.8 37.2 48.3 37.4 48.6 37.4 48.8 37.5 48.9 37.7L49.5 35.5 50.9 35.8 50.3 38C50.5 38 50.7 38 51 38.1 51.6 38.2 52 38.6 52.2 39.2 52.4 39.7 52.4 40.5 52.1 41.4 51.9 42.1 51.6 42.7 51.1 43.1 50.7 43.4 50.2 43.5 49.6 43.4 49.3 43.3 49.1 43.2 49 43.1L48.4 45.1 47.1 44.7 47.6 42.7C47.4 42.7 47.2 42.7 46.9 42.7 46.4 42.5 46 42.2 45.8 41.7 45.5 41.2 45.5 40.6 45.7 39.8L45.7 39.5ZM50.8 40.9C50.9 40.4 51 40 50.9 39.7 50.8 39.3 50.6 39.2 50.3 39.1 50.2 39.1 50.1 39 50 39L49.2 42.1C49.3 42.1 49.4 42.1 49.5 42.2 50 42.3 50.4 42 50.7 41.2L50.8 40.9ZM47.1 40C46.8 40.9 47 41.5 47.6 41.6 47.7 41.7 47.8 41.7 47.9 41.7L48.7 38.7C48.6 38.6 48.5 38.6 48.4 38.6 48.1 38.5 47.9 38.6 47.6 38.8 47.4 39 47.2 39.4 47.1 40ZM57.6 42.7C57.4 43.5 57 44.1 56.5 44.5 56.1 44.9 55.5 45 54.9 44.8 54.4 44.7 54 44.4 53.8 43.9L53.2 46.3 51.8 46 53.7 38.9 55 39.2 54.9 39.7C55.3 39.4 55.8 39.4 56.3 39.5 57 39.7 57.4 40 57.6 40.6 57.8 41.2 57.8 41.8 57.6 42.7L57.6 42.7ZM56.3 42.3C56.4 41.8 56.4 41.4 56.3 41.1 56.2 40.8 56 40.6 55.7 40.5 55.2 40.4 54.9 40.5 54.7 40.8L54.1 42.9C54.2 43.2 54.4 43.5 54.9 43.6 55.5 43.8 56 43.3 56.3 42.3ZM58.3 42.8C58.4 42.3 58.6 41.9 58.9 41.5 59.2 41.2 59.6 41 60 40.8 60.4 40.7 60.9 40.7 61.4 40.8 62.1 41 62.6 41.4 62.9 41.9 63.2 42.5 63.3 43.1 63.1 43.8L63.1 44.2C62.9 45 62.5 45.6 61.9 45.9 61.3 46.3 60.7 46.3 60 46.1 59.2 45.9 58.7 45.6 58.4 45 58.1 44.4 58 43.7 58.2 42.9L58.3 42.8ZM59.6 43.3C59.5 43.8 59.5 44.1 59.6 44.5 59.7 44.8 59.9 45 60.2 45 60.6 45.1 60.9 45.1 61.1 44.9 61.4 44.7 61.6 44.3 61.7 43.7 61.9 43.3 61.9 42.9 61.7 42.6 61.6 42.2 61.4 42 61.1 42 60.7 41.9 60.4 41.9 60.2 42.1 59.9 42.3 59.7 42.7 59.6 43.3ZM67.7 48.1L66.3 47.7 66.8 45.8 65.1 45.3 64.6 47.3 63.2 46.9 64.6 41.8 66 42.2 65.4 44.2 67.1 44.7 67.7 42.6 69 43 67.7 48.1ZM74 45.5L72.4 45.1 71.3 49.1 69.9 48.7 71 44.7 69.4 44.3 69.7 43.2 74.3 44.4 74 45.5ZM75.6 48L74.5 47.7 75.6 42.9 77 43.3 75.6 48ZM74.8 48.6C75.1 48.6 75.2 48.7 75.3 48.9 75.4 49.1 75.5 49.3 75.4 49.5 75.3 49.7 75.2 49.9 75 50 74.9 50 74.7 50.1 74.4 50 74.2 49.9 74 49.8 73.9 49.7 73.8 49.5 73.8 49.3 73.9 49.1 73.9 48.9 74 48.7 74.2 48.6 74.4 48.5 74.6 48.5 74.8 48.6Z" class="a"/></svg>