<svg xmlns="http://www.w3.org/2000/svg" width="1006" height="186" viewBox="0 0 1006 186" fill="none"><style>.a{fill:#FCF9F0;}</style><path d="M0 20C0 8.9 9 0 20 0H986C997 0 1006 8.9 1006 20V166C1006 177 997 186 986 186H20C9 186 0 177 0 166V20Z" fill="#FF3149"/><path d="M119.5 47C121.3 47 123.1 46.3 124.4 44.9 125.7 43.6 126.5 41.8 126.5 40 126.5 38.1 125.7 36.4 124.4 35 123.1 33.7 121.3 33 119.5 33H40C39.1 33 38.2 33.2 37.3 33.5 36.5 33.9 35.7 34.4 35 35 34.4 35.7 33.9 36.5 33.5 37.3 33.2 38.2 33 39.1 33 40V146C33 147.9 33.7 149.6 35.1 150.9 36.4 152.3 38.1 153 40 153H119.5C121.3 153 123.1 152.3 124.4 150.9 125.7 149.6 126.5 147.9 126.5 146V93C126.5 91.1 125.7 89.4 124.4 88.1 123.1 86.7 121.3 86 119.5 86H79.7C77.9 86 76.1 86.7 74.8 88.1 73.5 89.4 72.7 91.1 72.7 93 72.7 94.9 73.5 96.6 74.8 97.9 76.1 99.3 77.9 100 79.7 100H112.5V139H47V47L119.5 47Z" class="a"/><path d="M232.3 33H152.8C151 33 149.2 33.7 147.9 35 146.6 36.4 145.8 38.1 145.8 40V146C145.8 147.9 146.6 149.6 147.9 151 149.2 152.3 151 153 152.8 153 154.7 153 156.5 152.3 157.8 151 159.1 149.6 159.8 147.9 159.8 146V100H225.3V146C225.3 147.9 226.1 149.6 227.4 151 228.7 152.3 230.5 153 232.3 153 234.2 153 235.9 152.3 237.3 151 238.6 149.6 239.3 147.9 239.3 146V40C239.3 39.1 239.1 38.2 238.8 37.3 238.4 36.5 237.9 35.7 237.3 35 236.6 34.4 235.8 33.9 235 33.5 234.1 33.2 233.2 33 232.3 33V33ZM159.8 86V47H225.3V86H159.8Z" class="a"/><path d="M631.5 33H552C550.1 33 548.4 33.7 547.1 35.1 545.7 36.4 545 38.1 545 40V146C545 147.9 545.7 149.7 547.1 151 548.4 152.3 550.1 153 552 153H631.5C633.3 153 635.1 152.3 636.4 151 637.7 149.7 638.5 147.9 638.5 146V40C638.5 39.1 638.3 38.2 637.9 37.3 637.6 36.5 637.1 35.7 636.4 35.1 635.8 34.4 635 33.9 634.2 33.5 633.3 33.2 632.4 33 631.5 33V33ZM624.5 139H559V47H624.5V139Z" class="a"/><path d="M946 33H890.5C888.7 33 886.9 33.7 885.6 35.1 884.3 36.4 883.5 38.1 883.5 40V146C883.5 147.9 884.3 149.7 885.6 151 886.9 152.3 888.7 153 890.5 153 892.4 153 894.2 152.3 895.5 151 896.8 149.7 897.5 147.9 897.5 146V100H917C929.2 100 940.9 104.9 949.5 113.5 958.1 122.1 963 133.8 963 146 963 147.9 963.7 149.7 965.1 151 966.4 152.3 968.1 153 970 153 971.9 153 973.6 152.3 975 151 976.3 149.7 977 147.9 977 146 977 137 974.9 128 971 119.9 967 111.7 961.3 104.5 954.1 98.9 960.7 97.1 966.5 93.2 970.6 87.8 974.8 82.4 977 75.8 977 69V64C977 55.8 973.7 47.9 967.9 42.1 962.1 36.3 954.2 33 946 33V33ZM963 69C963 73.5 961.2 77.8 958 81 954.8 84.2 950.5 86 946 86H897.5V47H946C950.5 47 954.8 48.8 958 52 961.2 55.2 963 59.5 963 64V69Z" class="a"/><path d="M348 33.6C346.8 33 345.5 32.9 344.1 33.1 342.8 33.2 341.6 33.8 340.5 34.7L305.4 65.4 270.3 34.7C269.3 33.8 268 33.3 266.7 33.1 265.4 32.9 264 33.1 262.8 33.6 261.6 34.2 260.5 35.1 259.8 36.2 259.1 37.3 258.7 38.6 258.7 40V146C258.7 147.9 259.4 149.6 260.7 151 262.1 152.3 263.8 153 265.7 153 267.6 153 269.3 152.3 270.6 151 272 149.6 272.7 147.9 272.7 146V55.4L300.8 80C302.1 81.1 303.7 81.7 305.4 81.7 307.1 81.7 308.7 81.1 310 80L338.1 55.4V146C338.1 147.9 338.9 149.6 340.2 151 341.5 152.3 343.3 153 345.1 153 347 153 348.8 152.3 350.1 151 351.4 149.6 352.1 147.9 352.1 146V40C352.1 38.7 351.8 37.3 351 36.2 350.3 35.1 349.3 34.2 348 33.6V33.6Z" class="a"/><path d="M458 100C459.9 100 461.6 99.3 463 97.9 464.3 96.6 465 94.9 465 93 465 91.1 464.3 89.4 463 88.1 461.6 86.7 459.9 86 458 86H385.5V47H458C459.9 47 461.6 46.3 463 44.9 464.3 43.6 465 41.8 465 40 465 38.1 464.3 36.4 463 35 461.6 33.7 459.9 33 458 33H378.5C376.7 33 374.9 33.7 373.6 35 372.3 36.4 371.5 38.1 371.5 40V146C371.5 147.9 372.3 149.6 373.6 150.9 374.9 152.3 376.7 153 378.5 153H458C459.9 153 461.6 152.3 463 151 464.3 149.6 465 147.9 465 146 465 144.1 464.3 142.4 463 141.1 461.6 139.7 459.9 139 458 139H385.5V100H458Z" class="a"/><path d="M857.2 47C859 47 860.8 46.3 862.1 45 863.4 43.6 864.2 41.9 864.2 40 864.2 38.1 863.4 36.4 862.1 35.1 860.8 33.7 859 33 857.2 33H777.7C775.8 33 774.1 33.7 772.7 35.1 771.4 36.4 770.7 38.1 770.7 40V146C770.7 147.9 771.4 149.7 772.7 151 774.1 152.3 775.8 153 777.7 153H857.2C859 153 860.8 152.3 862.1 151 863.4 149.7 864.2 147.9 864.2 146 864.2 144.2 863.4 142.4 862.1 141.1 860.8 139.8 859 139 857.2 139H784.7V100H857.2C859 100 860.8 99.3 862.1 98 863.4 96.7 864.2 94.9 864.2 93 864.2 91.2 863.4 89.4 862.1 88.1 860.8 86.8 859 86 857.2 86H784.7V47H857.2Z" class="a"/><path d="M746.8 33.4C745 32.8 743.1 32.9 741.4 33.6 739.7 34.4 738.4 35.8 737.8 37.5L704.6 126.1 671.4 37.5C670.7 35.8 669.4 34.4 667.7 33.6 666.1 32.9 664.1 32.8 662.4 33.4 660.6 34.1 659.2 35.4 658.5 37.1 657.7 38.8 657.6 40.7 658.3 42.5L698 148.5C698.5 149.8 699.4 150.9 700.6 151.8 701.8 152.6 703.2 153 704.6 153 706 153 707.4 152.6 708.6 151.8 709.7 150.9 710.6 149.8 711.1 148.5L750.9 42.5C751.2 41.6 751.3 40.7 751.3 39.8 751.3 38.8 751.1 37.9 750.7 37.1 750.3 36.3 749.8 35.5 749.1 34.9 748.4 34.3 747.6 33.8 746.8 33.4V33.4Z" class="a"/></svg>