<svg xmlns="http://www.w3.org/2000/svg" width="226" height="389" viewBox="0 0 226 389" fill="none"><path d="M102.9 0L102.8 2.4C102.7 3.8 102.6 7.8 102.5 11.4L102.4 18 98.7 14.2C94.4 9.8 93.9 9.6 93.9 12.6 93.9 13.9 95.6 16.8 97.7 19.1 101.1 22.8 101.6 24 101.8 28.9 101.9 32.7 101.6 34.3 100.9 33.9 100.4 33.5 99.9 32.6 99.9 31.8 99.9 31 99.4 30.4 98.9 30.4 98.3 30.4 97.9 28.6 97.9 26.5 97.9 22.1 95.4 19 93.8 21.4 93.3 22.2 93.1 23.4 93.3 24.1 93.9 25.5 91 24.6 89.1 22.7 88.3 21.9 87.2 21.4 86.4 21.4 83.7 21.4 84.2 24.2 87.5 28 91.4 32.5 91.6 33.4 89 34 87.7 34.4 87.3 35.1 87.6 36.4 88.2 38.6 90.9 39 92.7 37.2 94 35.8 94.1 35.9 94.3 39.6 94.5 42.8 94.3 42.8 90.9 40.9 87.5 39 86.9 39 86.9 41.3 86.9 42.3 88.4 44.4 90.1 45.8 92.6 47.7 92.9 48.2 91.3 47.8 89.9 47.4 89 47.7 88.6 48.8 87.7 51 87 50.8 80.3 46.5 77.1 44.4 73.9 42.8 73.3 43 71.2 43.8 72.5 47.6 75.5 49.3L78.4 50.8 75.7 51.2C74.2 51.3 72.8 52.1 72.5 52.8 72 54.3 74.5 55.7 76 54.8 76.5 54.5 76.9 54.7 76.9 55.3 76.9 55.9 77.7 56.4 78.6 56.4 79.9 56.5 80 56.7 79 57.1 77.9 57.5 78.1 58 79.9 59.4L82.2 61.1 78.1 61.8C73.7 62.6 72.8 64.2 75.3 66.3 76.3 67.1 77.3 67.2 78.5 66.6 80.3 65.5 83.9 66.1 83.9 67.5 83.9 68 84.8 68.4 85.9 68.4 87 68.4 87.9 67.9 87.9 67.4 87.9 66.8 88.9 66.4 90.1 66.4L92.4 66.4 89.9 68.5C88 70.1 87.8 70.7 88.8 71.3 90.3 72.3 92.9 71.6 94.2 69.9 94.7 69.3 94.8 70.1 94.5 71.6 94 73.9 94.2 74.4 95.9 74.4 97 74.4 97.9 73.8 98 73.1 98 72.3 98.2 72.3 98.6 73.3 99 74.3 99.5 74 100.4 72.3L101.7 69.9 103 72.6C103.6 74.1 103.9 75.7 103.5 76.1 103.1 76.5 99.5 77 95.5 77.2 88.9 77.5 87.9 77.3 83.5 74.5 79.1 71.8 75.9 71.3 75.9 73.4 75.9 73.9 77.1 75 78.6 75.9L81.4 77.4 77.9 76.8C74.4 76.1 68.6 73.1 66.1 70.7 65.3 69.9 63.9 69.4 62.8 69.4 60.8 69.4 60.2 71.3 61.8 72.9 62.4 73.5 60.9 74 57.6 74.2 54.8 74.4 52.1 74.7 51.7 75 48.4 77 56.5 80.7 62.4 79.9L66.4 79.3 63.6 80.9C61.9 81.9 60.9 83.2 61.1 84.2 61.6 86.6 65.9 85.8 68.6 82.8 69.9 81.3 71.7 80.4 72.6 80.6 74 81 73.9 81.3 71.7 82.2 68.3 83.6 67.3 85.2 69.4 86 70.3 86.3 70.8 87.2 70.5 87.9 70.2 88.6 70.7 89.4 71.5 89.8 72.3 90.1 72.9 89.9 72.9 89.4 72.9 88.6 76.1 87.2 78.6 87 79.2 86.9 80.7 86 81.8 84.9 83 83.9 83.9 83.4 83.9 83.8 83.9 84.8 81.7 86.9 79.1 88.3 77.9 88.9 76.9 89.9 76.9 90.4 76.9 92.3 80 92.6 81.9 90.9 83.7 89.3 83.7 89.3 83.2 91.3 82.4 94.2 84.5 93.9 86.5 90.8 87.8 88.9 88.4 88.6 89.1 89.6 89.8 90.6 90 90.6 90.7 89.5 91.2 88.8 92.5 88.3 93.5 88.4 97.5 89 102.8 85.3 103 82 103.1 80.1 103.2 80.2 103.8 82.4 104.4 84.4 103.9 85.4 101 88.1 99 89.9 94.6 92.8 91.2 94.6L85 97.8 80.2 95.4C77.6 94.1 74.8 92.9 74.1 92.8 72.4 92.4 72.6 94.4 74.6 96.8 76.2 98.6 76.2 98.7 74.7 97.5 73.7 96.8 72.6 96.4 72.1 96.7 71.6 97 70 96.6 68.5 95.8 64.8 93.9 63.6 94 64.3 96.1 64.8 97.5 64.3 97.9 61.9 97.8 60.2 97.7 58.6 97.4 58.3 97.1 57.1 95.9 53.9 97.7 53.9 99.6 53.9 101.1 54.4 101.5 56 101.1 58 100.5 58 100.6 56.3 102.4 54.5 104.4 54.8 104.7 58.6 104.4 60.4 104.3 60.7 104.6 60.2 105.9 59.7 107.3 60 107.6 62.1 107.2 64.2 106.8 64.5 107 64.1 108.5 63.6 110.6 64.2 110.8 66.7 109.5 69.2 108.2 72.3 112.3 70.2 114.2 69.1 115.2 68.8 115.2 68.3 114.1 68 113.3 66.3 112.6 64.3 112.6 62.4 112.5 61 112.8 61.3 113.3 61.6 113.8 61 113.9 59.9 113.7 57.4 113 57.3 114.5 59.8 116.1 61.1 116.9 61.5 118 61.1 119.8 60.5 122.9 60.4 123 56.7 119.9 55.1 118.5 53.1 117.4 52.3 117.4 50.6 117.4 50.5 117.9 51.8 120.3 52.9 122.2 52.2 122.3 44.6 120.8 42.2 120.4 40.9 120.5 40.9 121.2 40.9 122.5 46.1 125.4 48.5 125.4 49.8 125.4 49.9 125.6 48.9 126.8 47.9 128 47.9 128.5 49.1 128.9 49.9 129.2 51 129.4 51.5 129.3 53.6 128.9 54.9 129.5 54.6 130.6 54.5 131.4 55.5 131.8 57.1 131.8 59.3 131.8 59.9 132.2 59.9 133.8 60 135.8 60 135.8 61.9 133.5 63.5 131.6 63.9 131.5 63.9 132.8 63.9 133.7 64.3 134.2 64.9 133.9 65.5 133.5 66.3 134.4 66.9 135.8 67.4 137.3 68.5 138.7 69.4 139 70.2 139.3 70.9 140.2 70.9 141 70.9 141.7 71.6 142.4 72.5 142.4 73.4 142.4 74.7 143.1 75.4 144.1 76.6 145.7 76.8 145.7 79.1 143.8L81.4 141.9 79.6 144C78.5 145.2 75.2 146.7 71 147.7 62.2 149.8 60.1 149.8 56.5 147.4 53.1 145.2 51.5 145.6 52.4 148.4 52.9 150 52.5 150.4 50.1 150.4 48.6 150.4 46.8 149.9 46.3 149.4 45.6 148.7 44.6 148.8 43.3 149.8 41.5 151.1 41.5 151.3 44.6 153 46.9 154.4 47.7 155.4 47.3 156.7 46.9 157.9 47.2 158.4 48.1 158.3 51 157.9 52.1 158.4 51.5 159.8 50.6 162.3 54.2 163.5 57 161.6 58.8 160.4 59.1 160.3 58.2 161.4 56.5 163.5 58.1 165.7 60.7 164.9 64.5 163.7 65.6 165.6 61.8 167 57.1 168.7 52.3 168.7 50.5 166.9 48.6 164.9 45.5 164.9 46.2 166.8 46.7 168.1 46 168.2 42.3 167.7 37 167 36.3 168.6 41.2 170.4 43.6 171.3 44.5 172.2 44.2 173.4 43.6 175.4 46.8 176.6 49.2 175.2 50.6 174.4 50.9 174.7 50.9 176.7 50.9 178.7 51.3 179.1 53.1 178.6 54.8 178.2 55.1 178.4 54.5 179.8 54 181.2 54.3 181.5 55.9 181.1 57 180.8 57.9 181 57.9 181.5 57.9 183.2 60 182.3 62.7 179.5 65.9 176.1 67.8 175.3 70.1 176.5 72.9 177.9 72.2 179.1 68.9 178.6 65.5 178.1 64.9 179.6 67.4 183.2 68.9 185.2 68.9 185.4 67 185.4 65.9 185.4 64.3 186.1 63.5 186.9 62.7 187.7 61.4 188.4 60.5 188.4 59.7 188.4 58.7 188.8 58.4 189.3 58.1 189.8 56.1 190.2 54 190.2 51.8 190.2 49.5 190.5 48.8 190.9 48.1 191.4 46 191.7 44.2 191.5 41.6 191.4 41 191.7 40.7 193.6 40.5 195.2 39.7 195.9 37.9 196 36.5 196 34.9 196.2 34.4 196.3 33.8 196.5 32.6 196.5 31.6 196.4 30.7 196.3 29.9 196.6 29.9 197.1 29.9 198.4 35.4 201.4 37.9 201.4 40.1 201.4 40.2 201.4 38.4 203.4 36.6 205.3 36.7 205.4 39.2 205.4 41.2 205.4 41.7 205.7 41.2 206.9 40.8 208.2 41.2 208.3 43.5 207.8 45.1 207.4 46.6 207.1 46.9 207.1 50 207.2 50.7 207.5 50.3 208.8 49.2 211.5 51.8 211.4 53.3 208.7 54.7 206 54.8 206 54.8 208.1 54.9 209.4 55.2 210.4 55.6 210.5 61.8 211.4 62.8 211.1 64 208.1L65.2 205.1 66.1 207.5 67 209.9 68.9 207.4C70.8 204.9 70.8 204.9 70.9 207.1 70.9 210.2 72.7 210 73.5 206.9 73.8 205.5 74.5 204.4 75.1 204.4 75.6 204.4 75.7 204.9 75.3 205.5 74.8 206.2 75.6 206.4 77.9 205.9 80.3 205.3 81 205.5 80.7 206.4 80.1 208.2 73.8 211.4 70.7 211.4 69.3 211.4 67.9 211.9 67.6 212.6 67.3 213.4 65.4 213.8 62.5 213.8 60 213.7 57.9 214.1 57.9 214.5 57.9 216.4 61.4 218.5 64.1 218.2 65.8 218 67.2 218.3 67.2 218.8 67.5 220.4 61.6 221.4 47.4 221.9 31.3 222.6 24.9 223.3 24.9 224.3 24.9 224.8 23.8 224.9 22.4 224.6 21 224.4 19.9 224.6 19.9 225.2 19.9 226.6 23.2 228.4 25.8 228.4 26.9 228.4 27.9 228.8 27.9 229.4 27.9 229.9 27.4 230.4 26.8 230.4 26.3 230.4 24.8 231.3 23.6 232.5L21.4 234.6 24.6 234.2C26.8 233.9 27.9 234.1 27.9 234.9 27.9 235.7 28.7 236 29.9 235.7 31 235.4 31.9 235.6 31.9 236.3 31.9 237.9 34.4 237.6 35.9 235.9 36.6 235.1 37.6 234.4 38.1 234.4 38.7 234.4 38.5 235.2 37.6 236.2 36.6 237.2 35.9 238.3 35.9 238.7 35.9 239.7 39.7 239.5 40.4 238.4 41.4 236.8 42.7 237.2 43.4 239.4 44.2 241.9 45.3 241.9 49 239.3L51.9 237.3 51.2 240.3C50.5 244.1 52.3 244.4 56.4 241.2 59 239.1 59.1 239.1 58.1 241.1 56.8 243.4 57.4 244.5 59.5 243.7 60.3 243.4 61.6 243.7 62.4 244.4 63.4 245.2 63.9 245.3 63.9 244.5 63.9 243.9 64.6 243.4 65.4 243.4 66.2 243.4 66.9 244 66.9 244.8 66.9 245.8 67.8 246.1 69.6 245.9 80.1 244.7 66.6 250.8 54.5 252.7 46.6 254 45.8 253.9 43.2 252.2 41.6 251.2 39.8 250.4 39.1 250.4 37.1 250.4 37.7 252.4 40.1 253.4 41.8 254.1 41.2 254.2 37.9 253.7 35.4 253.3 32.3 253.1 30.9 253.1 29.5 253.2 26.2 252.6 23.5 251.8 20.8 251 18.4 250.5 18.2 250.7 17.2 251.7 23.6 255.9 27.1 256.4L31.4 257.1 27.6 257.3C25 257.3 23.9 257.8 23.9 258.9 23.9 259.7 24.7 260.4 25.6 260.5 26.6 260.6 27.8 260.8 28.4 260.9 28.9 261 30 261.2 30.8 261.3 31.9 261.3 31.8 261.7 30.3 262.8 27.9 264.6 29 265.9 31.8 264.4 33.5 263.5 33.9 263.6 33.9 264.9 33.9 266.2 34.6 266.5 37.1 266.1 38.9 265.9 41.3 265.3 42.4 264.9 44.4 264.2 44.3 264.2 42.4 265.8 40.5 267.4 40.9 267.7 44.1 267.4 45.1 267.3 45.9 267.9 45.9 268.8 45.9 271 46.7 270.8 49.1 268.1L51.1 265.9 49.5 268.6C48.6 270.1 47.9 271.8 47.9 272.3 47.9 273.9 52.8 272.7 55.1 270.7 57.1 268.9 57.1 268.9 56.4 271.4 55.3 274.8 54.1 275.5 44.9 278.3 37.2 280.6 36.8 280.6 32.6 279 28.1 277.3 21.9 276.8 21.9 278.2 21.9 278.6 22.4 279.5 23.1 280.2 23.9 281 22.6 280.9 19 279.8 16.1 278.9 13 278.5 12.1 278.8 10.8 279.3 11 279.8 12.9 281.9L15.2 284.3 11.8 283.3C7.5 282.1 2.2 282.1 1.4 283.3 0.6 284.6 7.3 287.4 11.2 287.4H14.4L11.5 289.7C8.6 292 8.6 295.1 11.5 294 12.5 293.6 12.9 294.2 12.9 295.9 12.9 297.7 13.4 298.4 14.8 298.4 15.9 298.4 17.4 299.1 18.3 299.9 19.5 301.2 20.1 301.2 21.8 300.2 23 299.5 23.9 298.5 23.9 298.1 23.9 297.7 24.7 298.2 25.7 299.1 27.6 301 28.1 303.4 26.6 303.4 26.2 303.4 26.1 303.9 26.5 304.5 26.9 305.2 26.2 305.4 24 304.9 22 304.5 20.9 304.6 20.9 305.3 20.9 305.9 19 306.4 16.4 306.4 11.7 306.4 10.8 307.2 13.4 309.4 14.4 310.2 16.5 310.4 19.6 310L24.4 309.4 20.7 311.4C18.1 312.8 17.1 313.9 17.6 314.9 17.9 315.9 18.8 316.2 19.8 315.8 20.7 315.4 22.1 315 22.9 314.9 23.7 314.8 23.8 314.9 23.1 315.1 20.6 316 21.9 317.6 24.6 316.9 26.6 316.5 27 316.6 25.9 317.3 23.3 319 25.6 319.5 28.8 317.9 30.5 317 31.9 316.7 31.9 317.3 31.9 317.8 31.3 318.4 30.6 318.7 30 318.9 29.7 319.5 30.2 319.9 30.6 320.4 32.2 320.3 33.8 319.7 36.2 318.8 36.7 318.9 36.2 320 35.8 321 36.2 321.2 37.5 320.7 39.1 320.2 39.2 320.3 38.1 321.5 37.1 322.6 33.6 322.8 22.3 322.7 13.6 322.5 7.9 322.8 7.9 323.4 7.9 323.9 8.6 324.4 9.5 324.4 10.3 324.4 11.7 325 12.4 325.8 13.6 327 13.6 327.3 12.3 327.8 11.4 328.1 9.3 328.4 7.6 328.4 3.9 328.4 1.4 329.7 2.2 331.1 3.3 332.9 8.3 333.2 12.4 331.8 17.9 329.9 18.2 330 15.3 332.8 11.8 336.3 12.1 338.5 15.9 337.4 17.5 336.9 19.3 336.2 19.9 335.9 20.4 335.5 20.9 336.1 21 337.1 21.1 338.1 21.2 339.4 21.3 340 21.4 340.7 21.7 341.5 22.1 341.9 22.9 342.7 28.9 339.3 28.9 338.1 28.9 337.6 29.3 337.5 29.8 337.8 30.5 338.2 30.5 339.3 29.8 341 29.3 342.4 28.9 343.9 28.9 344.5 28.9 345.8 33.6 342.4 38.4 337.7 41.9 334.1 42.4 334.7 39.1 338.6 38.3 339.5 37.9 341 38.3 342 38.9 343.5 39.2 343.4 41.5 341.3L44.1 338.9 43.7 341.4C43.4 343.7 42.7 344 35.4 345.2 30.2 346 26.9 346.2 25.9 345.6 23.4 344 17.9 343.1 17.9 344.2 17.9 344.8 18.7 345.4 19.6 345.7 20.6 345.9 19.1 345.9 16.4 345.7 12.4 345.3 11.6 345.5 12.6 346.5 14.6 348.4 14.1 349.1 11.4 348.6 8.2 348 3.6 349.2 4.4 350.4 4.7 350.9 6 351.4 7.3 351.4 11.5 351.4 10.9 352.8 5.7 354.8 -3.1 358.4-1.2 361.1 7.9 357.8 12.5 356.2 14.4 356.5 11 358.3 9.8 358.9 8.9 360.1 8.9 361 8.9 362.2 9.5 362.4 11.6 361.9 13.9 361.3 14.1 361.4 12.9 362.8 10.2 366.1 13.1 366.1 17.6 362.8 19.6 361.3 19.7 361.3 19.1 363.5 18.6 365.6 18.7 365.7 20.2 364.5 21.7 363.2 21.8 363.3 21.2 365 20.6 366.6 20.9 366.6 23.1 364.6 25.6 362.3 27.2 362.5 26.2 365 25.4 367 27.8 366.7 31.6 364.4 33.5 363.3 34.9 362.9 34.9 363.5 34.9 364.2 35.9 364.4 37.6 364 39.5 363.5 39.9 363.6 38.9 364.3 38.1 364.7 34.9 365.7 31.9 366.3 25.4 367.6 23.4 368.7 24.4 370.3 25.1 371.5 26.4 371.3 32.4 369.7 33.9 369.3 33.6 369.9 31.1 372.3 29.4 374.1 27.9 375.7 27.9 376 27.9 377 33.5 375.7 36.6 374 40.2 372.2 40.7 372.7 38.4 375.8 36.3 378.5 36.5 379.7 38.9 379.1 40.2 378.7 40.9 379.1 40.9 380 40.9 381.8 41.8 381.7 44.1 379.6 46 378 46.1 378 45.7 379.9 45.2 382.9 50.8 382 53.7 378.6L56 375.9 55.4 379.1C54.5 383.4 57 383.5 60.9 379.4 62.4 377.7 63.8 376.4 64 376.4 64.2 376.4 64.4 377.5 64.5 379 64.8 382.9 66.4 384 68.5 381.5 70.1 379.6 70.3 379.6 71.6 381.2 72.8 382.7 72.9 382.7 73.5 380.7 73.8 379.4 74.6 378.7 75.4 379 76.3 379.4 77 378.6 77.5 376.9 77.9 375 78.4 374.6 78.9 375.4 79.4 376.1 80.7 376.9 81.8 377 83.4 377.3 84.4 376.4 86.1 372.9 88.3 368.4 90.6 366.6 89.4 370.4 88.6 372.8 89.2 372.9 92.4 370.8 93.8 369.9 94.9 368.2 95 367 95.1 365.3 95.2 365.2 95.6 366.6 96.3 369.5 97.9 367.5 97.9 363.6 98 360.6 98.1 360.2 99 361.6 99.5 362.6 100.9 363.4 102.1 363.4 104 363.4 104.1 363.7 103.5 371.1 103 376.3 102 380.5 100.3 383.7 99.4 385.6 98.6 387.3 98.2 388.2H123.1C124.2 387.3 123.7 385.8 122.5 383.1 120.8 378.8 120.1 370.2 121.5 369.7 122 369.5 123.2 370.7 124.2 372.3 126 375.4 128.3 376.6 127.2 373.9 126.1 370.8 127.9 372.5 129.3 375.7 130.4 378.3 131.2 379.1 133 378.9 134.3 378.8 136 379.2 136.8 379.8 137.8 380.6 138.3 380.5 138.6 379.7 138.9 378.9 139.7 379.2 141 380.4 143.5 383 144.8 382.9 144.2 380.1 143.9 378.8 144.1 378.3 144.6 378.9 145.7 380.4 148.9 381.5 148.9 380.4 148.9 379.4 154.4 379.8 157.3 380.9 158.8 381.6 159.1 381.4 158.6 380.1 158.3 379.2 158.5 378.3 159.2 378.1 160.1 377.7 160.1 377.3 159.1 376.3 156.9 373.9 157.8 373.6 161.6 375.5 165.7 377.6 166.8 377.3 164.8 374.6 163.8 373.2 163.8 373.1 164.8 374 165.5 374.7 166.7 375 167.5 374.7 168.3 374.4 168.9 374.6 168.9 375.1 168.9 375.6 169.5 376.8 170.3 377.9 171.5 379.5 171.9 379.6 173.3 378.4 174.8 377.2 175.2 377.4 176.6 379.4L178.2 381.7 179.1 379.3C180 377 180.1 377 181.3 378.6 182.9 380.8 183.6 380.8 185.6 378.8 186.8 377.6 186.8 377 185.9 375.8 185.2 375 184.9 374.4 185.3 374.4 185.7 374.4 185.4 373.4 184.8 372.1 183.8 370.2 184.2 370.4 187 372.9 193.2 378.5 193.7 378.7 195.4 377 196.3 376.1 196.7 374.8 196.3 374.1 195.9 373.4 196.4 373.5 197.5 374.4 202.7 378.7 208.1 379.5 204.5 375.5 202.9 373.7 202.9 373.6 205.5 372.9L208.2 372.2 205.3 369.8C201.5 366.7 203.5 366.7 209 369.8 211.4 371.2 214 372.3 214.6 372.3 216.7 372.4 216.1 370.8 213.6 369.6 211.6 368.6 211.8 368.5 215.4 368.4 217.7 368.4 220.4 367.7 221.4 366.9 223.3 365.5 223.3 365.4 220.4 365.4 216.1 365.4 200.9 362.6 197.7 361.3 193.8 359.7 193.1 357.2 196.9 358.7 200.3 360 202 358.9 199.5 357.1 198.1 356 198.5 355.9 202.4 356.2 207.2 356.6 208.3 355.4 204.6 353.5 202.7 352.5 203 352.4 207.3 352.6 213 352.9 214.6 351 209.7 349.8L206.4 349 209.6 348.6C213.5 348.2 213.8 347.1 210.6 345.5 208.8 344.6 209.6 344.5 214.9 344.9 220.9 345.4 221.2 345.3 219.4 343.9 218.4 343.1 216.7 342.4 215.7 342.4 214.8 342.4 213.7 341.9 213.3 341.3 212.9 340.6 213.5 340.3 215 340.4 219.2 340.7 221.9 340.4 221.9 339.5 221.9 339 218.7 338.3 214.9 337.9 211 337.6 208.1 336.9 208.3 336.4 208.6 336 211.5 335 214.7 334.3 220.9 333 224.8 330.9 223.5 329.7 222.9 329.1 217.3 330 209.9 331.9 207.6 332.5 207.7 332.4 210.8 329.7 216 325.2 213.1 324.8 205.6 328.8 198.2 332.9 193.9 333.3 185.6 330.4 176.2 327.2 161 319.5 159.9 317.4 158.5 314.8 159.3 314.8 161.8 317.6 163 318.8 163.9 319.4 163.9 318.9 163.9 318.5 164.6 318.7 165.4 319.4 166.6 320.4 166.9 320.3 166.9 318.8 166.9 317.3 167.4 317.5 170 319.9L173.1 322.9 172.6 319.7C172 316.5 172 316.5 174.7 317.6 176.2 318.2 178.1 319.3 178.9 319.9 182.8 322.9 183.2 322.8 182.5 319.3 182 316.7 182.1 316.2 183.1 317.2 184.8 318.9 188.9 318.7 188.9 316.9 188.9 315 190.5 314.9 191.6 316.7 192 317.5 193.6 318.8 195.1 319.8 197.4 321.3 197.9 321.3 197.9 320.1 197.9 319.3 197 317.9 195.9 316.9 194.8 315.9 193.9 314.6 193.9 314 193.9 313.5 194.2 313.3 194.5 313.7 194.8 314 195.8 313.6 196.7 312.7 197.8 311.6 199.4 311.3 202 311.7 204.6 312 205.9 311.7 206.3 310.8 206.7 309.8 207.6 309.7 210.1 310.4 218.9 312.9 220.5 310.1 212 307 206.3 304.9 205.5 303.8 210.9 305.4 217.8 307.3 226.7 305.9 222.9 303.4 222.1 302.8 219.4 302.3 216.9 302.3 213.1 302.1 212.8 302 215.3 301.5 216.9 301.2 218.4 300.2 218.7 299.5 219.1 298.3 217.5 298.2 209 298.8 199 299.4 198.8 299.4 200.1 297.5 201.9 294.5 200.6 294 195.6 295.7 193 296.6 189.5 297 186.8 296.7 181 296 161.9 289.6 159.6 287.6 157.3 285.5 157.4 284.1 159.9 284.9 161 285.2 161.9 285.1 161.9 284.5 161.9 283.4 163.4 283.7 168.4 285.9 170 286.6 173.7 287.2 176.5 287.2 179.3 287.2 182 287.3 182.5 287.4 184.8 287.9 185 287.2 183.3 285.1 182.1 283.6 182.4 283.8 184.5 285.6 187.9 288.8 188.9 289 188.9 286.8 188.9 285.5 189.2 285.5 191.5 287 193 288 194.3 288.3 194.7 287.8 195.1 287.2 196.7 286.2 198.4 285.5 201.2 284.2 201.3 284.1 199.4 282.8 197.2 281.1 197.7 281 201.3 282.3 203.2 283.1 203.9 283 203.9 282 203.9 281.2 206.4 280.2 210.4 279.4 214 278.6 216.9 277.6 216.9 277.1 216.9 276.6 217.3 276.5 217.9 276.9 218.4 277.2 219.7 277 220.6 276.5 222.1 275.6 222 275.4 219.6 274.8 217.5 274.3 217 273.7 217.4 272.3 217.8 271 217.4 270.4 215.7 270.2 214.1 269.9 215.2 269.2 219.6 267.8 226.4 265.7 228.1 263.7 222.1 264.9 216.6 266 202.9 266.2 202.9 265.2 202.9 264.8 203.3 264.4 203.9 264.4 204.4 264.4 204.9 263.9 204.9 263.4 204.9 262.8 202.8 262.4 200.1 262.5 193.6 262.6 183.1 260.4 182.5 258.8 182.1 257.8 182.8 257.4 184.4 257.4 185.8 257.4 186.9 256.9 186.9 256.4 186.9 255.9 187.6 255.7 188.4 256 189.2 256.3 189.9 256 189.9 255.4 189.9 254.6 190.7 254.8 192.1 255.8 193.3 256.7 195.5 257.4 196.9 257.3L199.4 257.3 197.1 255.4 194.8 253.5 199.6 253.2 204.4 252.8 200.9 251.1 197.4 249.4 200.5 249.4C202.4 249.4 204.4 248.5 205.9 246.9 207.2 245.5 208.7 244.4 209.3 244.4 209.9 244.4 211 243.5 211.7 242.3 213.5 239.4 211.2 238.8 205.4 240.8 199.2 242.9 197.9 242.8 198.6 240.4 199.2 238 199.1 237.9 192.8 240 188 241.6 187.5 241.5 179.9 239.3 169.6 236.4 166.9 233.7 174.9 234.1 175.7 234.2 176.7 233.7 177.1 233.1 177.5 232.3 178.4 232.5 179.8 233.8 181.3 235.2 182.7 235.4 185.8 234.9 190.4 234.1 190.7 233.7 188.1 231.7 186.4 230.2 187 230.2 191.3 231.9 192.8 232.6 193.1 232.4 192.6 231 192.1 229.8 192.5 229.4 194 229.4 195.4 229.4 195.9 228.9 195.6 227.9 195.3 227.1 195.5 226.3 196.2 226 197 225.6 196.9 225.1 195.7 224.1 194.2 222.9 194.3 222.6 196.5 220.5 200.1 217 199.4 216.3 194.1 218 181 222.2 176.2 222.4 173 219 171.2 217.1 171.1 216.5 172.3 216.1 173.1 215.8 175.1 216 176.8 216.6 181 218.2 182 216.6 178.4 213.8 175.9 211.7 175.7 211.4 177.4 211.5 180.9 211.8 182.9 211.4 182.9 210.4 182.9 209.8 182.1 209.3 181.1 209.3 179.7 209.3 179.8 209.1 181.5 208.4 182.7 207.9 183.9 206.8 184.2 205.9 184.7 204.5 184.5 204.5 182.6 205.6 179.1 207.5 158.3 207.2 153.9 205.2 150.8 203.7 150.7 203.5 152.7 203.4 154.6 203.4 155 203 154.6 201.3 154.1 199.4 154.2 199.3 155.7 200.6 157.9 202.5 160.9 203.6 160.9 202.4 160.9 202 161.8 201.8 162.9 202.1 164 202.4 164.9 202.1 164.9 201.5 164.9 200.9 166 200.4 167.4 200.4 170.7 200.4 170.6 199.4 166.7 196.2L163.5 193.6 168.8 194.4C174.3 195.3 176.4 194.9 175.3 193.3 174.3 191.6 177 189.4 180 189.4 183.4 189.4 183.9 187.7 180.6 187 179.4 186.8 179.9 186.6 181.9 186.7 184.2 186.7 185.3 186.4 185.1 185.6 185 184.9 185.4 184.4 186 184.4 186.7 184.4 186.7 183.9 185.8 182.8 185 181.8 183.6 181.4 182 181.8 180.5 182 180 182 180.6 181.8 183 180.7 181.9 179.1 179.4 179.8 177.4 180.3 177.1 180.1 177.6 178.7 178.1 177.5 177.9 177.3 176.9 177.9 176.1 178.3 174.4 178.8 173 178.9 171.5 179 169.3 179.4 167.9 179.8L165.4 180.5 168.1 178.2C171.3 175.4 171.8 173.8 169 175.3 166.2 176.8 164.1 176.7 165.7 175.2 167.9 172.9 167 171.1 164.7 173.3 163.6 174.4 161.2 175.9 159.5 176.8 153.4 179.6 136.9 175.7 136.9 171.3 136.9 170.5 136.3 169.2 135.7 168.6 134.9 167.8 134.9 167.4 135.6 167.4 136.2 167.4 136.9 168 137.2 168.9 137.6 169.8 139 170.3 141.1 170.3 142.9 170.2 145.4 170.5 146.6 170.9 148.5 171.5 148.9 171.2 148.9 169.5V167.4L152.3 169.4C154.8 170.9 155.9 171.1 156.4 170.3 156.8 169.7 156.5 168.7 155.8 168.2 154.6 167.4 160.4 167.5 164.4 168.4 164.9 168.5 166.4 168.2 167.7 167.8 169.8 167.2 169.8 167 168.4 165.3 166.9 163.7 167 163.6 169.3 163 172.2 162.2 172.8 160.4 170.1 160.3 169 160.3 169.5 159.8 171.4 158.9 173 158.1 175.7 156.4 177.3 155.1L180.2 152.7 176.6 152C174.6 151.6 172.9 150.8 172.9 150.3 172.9 149.8 171.7 149.6 170.1 150 167.7 150.6 167.5 150.5 168.6 149.2 170.6 146.8 167.7 146.1 164.7 148.2 163.4 149.2 160.4 149.9 157.5 149.9 153.5 150 153 149.8 154.7 149 156.6 148.2 156.8 147.3 156 143.5 155.9 143.3 154.4 144.1 152.5 145.3 150.7 146.4 147.6 147.4 145.8 147.3 139.5 147.3 128.8 143.2 122 138.1 119.4 136.2 119.9 135.8 123 137.4 124.5 138.2 124.9 138.1 124.9 136.7 125 135 125 134.9 126 136.6 126.6 137.6 127.4 138.2 127.9 137.8 128.4 137.5 130 138 131.4 138.9 133.9 140.6 133.9 140.6 133.9 137.7 133.9 136.1 134.2 135.4 134.6 136 135.5 137.3 139.3 139.4 140.8 139.4 141.4 139.4 141.9 138.4 142 137.1 142.1 135 142.1 135 142.8 137.4 143.2 138.8 143.7 139.7 143.9 139.4 144.2 139.2 145.3 139.5 146.5 140.1 148.2 141 148.8 140.9 149.9 139.3 150.6 138.3 151.6 137.7 152.1 138 152.6 138.3 152.7 137.4 152.3 135.9 151.7 133.4 151.8 133.4 154.4 134.4 157.7 135.6 158.7 135 156.9 132.9 155.8 131.6 156 131.4 157.4 131.4 159.1 131.4 159.1 131.3 157.5 129.5 156.5 128.4 156.2 127.3 156.7 127 157.2 126.7 158.4 127.3 159.4 128.4 160.9 130.1 161.9 130.2 165.7 129.4 165.9 129.4 165.6 128.8 165 128 163.7 126.5 164.5 125.4 166.9 125.4 167.9 125.4 169.7 124.5 171 123.4L173.4 121.4 170.4 121.3C168.7 121.1 166.3 121.2 165 121.3 162.8 121.5 162.7 121.3 163.8 119.9 166 117.3 164.5 117.3 160.6 119.9 156.4 122.8 153.9 123.3 155.9 120.8 157 119.6 156.9 119.4 155.5 119.9 153.6 120.7 153.3 119.3 155.1 117.6 157.6 115 154.9 115.4 151.7 118.1 145.5 123.3 144.8 123.4 137.7 121.3 130.4 119.1 125.4 116.3 124 113.5 123.1 111.8 123.3 111.6 125.4 111.7 126.8 111.8 128.1 112.6 128.4 113.4 128.7 114.3 129.8 115 131 115.1 132.7 115.2 133 114.8 132.5 113.1 132 111.2 132.2 111.2 134.3 113.7 135.6 115.1 137.6 116.4 138.9 116.4 140.8 116.4 141.1 116 140.6 113.5 139.8 109.7 142.1 108.6 144.6 111.7 146.3 113.8 151.9 115.2 151.9 113.6 151.9 113.2 150.4 111.7 148.6 110.2 146.2 108.1 145.8 107.4 147.2 107.4 148.2 107.4 149.2 108 149.5 108.8 149.8 109.7 150.5 110.1 150.9 109.8 151.4 109.6 152 109.8 152.4 110.3 152.7 110.9 154.2 111.4 155.6 111.4 158.2 111.4 158.2 111.3 156.3 109.9 154.5 108.6 154.5 108.5 157.2 107.4 158.8 106.8 160.6 106.4 161.2 106.3 161.9 106.3 161.3 105.7 159.9 104.9 157.5 103.6 157.5 103.5 161.3 103.9 163.7 104.1 165.7 103.7 166.6 102.8 168.8 100.6 167.2 99.4 162.3 99.4 159.5 99.4 158 99 158.4 98.3 159.7 96.3 156 96.3 151.8 98.3 146.7 100.7 145.8 100.9 146.5 98.9 146.9 97.9 146.5 97.4 145.5 97.4 144.5 97.4 144.2 96.8 144.5 95.9 145.2 94.1 144.9 94.1 141.6 95.3 139.4 96.1 139.2 96 139.6 94.3 140.1 92.3 138.5 91.6 137.4 93.4 137 93.9 134.9 95.3 132.6 96.5 129 98.4 128.1 98.4 124.5 97.4 121.2 96.4 120.8 96 122.2 95.2 123.1 94.7 123.9 93.6 123.9 92.8 123.9 91.6 122.9 91.3 119.4 91.5 116 91.7 114.4 91.3 112.9 89.8 110.7 87.6 108.6 79.7 110 78.8 110.8 78.3 111.3 80.4 111 83.2 110.9 83.9 111.7 85.8 112.9 87.4 114.6 89.8 115.4 90.2 116.5 89.3 117.3 88.6 117.9 86.9 118 85.5 118.1 83.4 118.2 83.3 118.6 84.9 119.4 88 122 90.4 124.6 90.4 126.6 90.4 126.8 90.1 125.9 88.4 124.6 86 124.6 85.1 125.9 85.9 126.4 86.2 126.9 86 126.9 85.4 126.9 84.9 127.3 84.4 127.9 84.4 128.4 84.4 128.9 85 128.9 85.8 128.9 87.6 134.7 92.6 136 91.8 136.5 91.5 136.9 90.4 136.9 89.3 136.9 88.2 137.3 87.4 137.9 87.4 138.5 87.4 138.7 86.8 138.4 86.1 138 85.4 138.6 85.9 139.6 87.2 140.6 88.4 141.8 89.1 142.2 88.7 142.6 88.3 143.9 87.8 145.1 87.7 147.9 87.3 151.9 85.3 151.9 84.3 151.9 83.9 150.6 83.1 148.9 82.4 147.3 81.7 146.1 80.6 146.2 80 146.3 79.4 145 78.8 143.3 78.8 139.8 78.6 134.7 76.3 136.6 75.6 137.3 75.4 137.9 74.6 137.9 73.8 137.9 72.2 132.9 71.8 131.3 73.3 129.8 74.7 125.9 75.6 125.9 74.5 125.9 74 127 73.3 128.5 72.9 130.6 72.4 130.8 72 129.8 70.8 128.8 69.6 129 69.4 130.5 69.3 132.8 69.3 136.5 66.6 135.6 65.8 135.3 65.4 132.9 64.9 130.4 64.6 125.4 64.1 125.5 64.1 126.9 61.3 127.9 59.5 128.1 59.5 130.3 60.9 132.6 62.4 132.8 62.3 133.4 60.4 133.7 59.3 134.5 58.6 135 58.9 135.5 59.2 135.9 59 135.9 58.4 135.9 57.9 136.8 57.4 137.9 57.4 139 57.4 139.9 56.7 139.9 56 139.9 54.4 137.8 53.4 134.8 53.4 132.5 53.4 132.2 51.5 134.4 50.7 135.2 50.4 135.7 49.8 135.4 49.4 135.1 49 136.1 48.1 137.4 47.3 140.8 45.5 140 43.9 135.7 43.9H132.1L134.7 40.6C136.7 38 136.9 37 136 36.1 135 35.1 134 35.6 131.5 38.4 128.4 41.8 128.1 41.9 127 40.2 126.4 39.2 125.4 38.4 124.9 38.4 123.7 38.4 120.6 44 119.9 47.3 119.4 49.8 110.2 57.7 108.8 56.8 108.4 56.6 108.2 53.9 108.3 50.9 108.4 47.9 108.1 45.4 107.6 45.4 107.2 45.4 106.9 43.7 107.1 41.7 107.3 38.6 107.8 37.9 110.2 37.3 112.6 36.6 112.9 36.8 112.4 38.3 111.5 41.2 113.9 41.9 115.9 39.4 116.9 38 117.9 37.5 118.2 38.1 118.9 39.2 122.9 38.6 122.9 37.4 122.9 36.5 117.9 31.9 117.1 32 116.7 32 115.6 31.8 114.6 31.6 111.8 30.9 113.7 29.5 116.6 30.1 121.7 31.1 126.2 30.9 126.6 29.6 126.9 28.9 126.4 28.4 125.6 28.4 124.8 28.4 123.6 27.7 122.9 26.9 122.2 26.1 121.3 25.6 120.8 25.9 120.3 26.2 119.9 26.1 119.9 25.7 119.9 25.2 121.3 24 122.9 22.9 125.9 20.9 126.8 19.4 124.9 19.4 123 19.4 116.5 22.4 115.6 23.7 115.1 24.4 115 24 115.4 22.7 115.7 21.5 115.5 20.3 115 19.9 113.9 19.3 109.9 25.7 109.9 28.1 109.9 29 109.6 29.4 109.2 29.1 108.9 28.7 108 29.2 107.2 30.1 106 31.6 105.9 31.2 106.4 27 106.8 23 107.7 21.1 111.4 16.8 113.8 13.9 115.9 10.9 115.9 10.1 115.9 7.7 110.9 9.3 109.8 12 108.2 16.3 106.4 14.8 106.7 9.4 107 5.5 106.7 4 105 2.2L102.9 0ZM96.1 35.1C96.6 35.1 97.7 36 98.9 37.4 101 39.7 101.9 41.8 101.9 44 101.9 45.9 101.7 47.4 101.5 47.4 101 47.4 99.7 44.3 99.2 41.9 99 40.8 98.2 39.2 97.4 38.3 96.6 37.4 95.9 36.1 95.9 35.3 95.9 35.2 96 35.1 96.1 35.1ZM93.7 49.8C95.6 49.9 100.2 53.1 100.9 55 102.2 58.5 101.5 59.1 99.2 56.5 98.3 55.3 96.9 54.4 96.2 54.4 95.1 54.4 92.3 50.5 93.1 49.9 93.2 49.8 93.4 49.8 93.7 49.8ZM121 57.9C121.2 57.9 121.5 58 121.8 58.1 123.5 58.5 123.1 59.1 119.2 62 116.7 63.9 113.8 65.6 112.8 65.7 111.7 65.7 110.9 66.1 110.9 66.6 110.9 67 110.4 67.4 109.8 67.4 109.2 67.4 108.9 66.4 109.1 65.1 109.3 63.2 109.9 62.9 113.1 63.2 116 63.4 116.9 63.2 116.9 61.9 116.9 61.1 117.6 60.4 118.4 60.4 119.2 60.4 119.9 59.7 119.9 59 119.9 58.3 120.3 57.9 121 57.9ZM109.4 72.3L111.7 73.4C113 74 115.2 74.3 116.5 73.9 117.9 73.6 118.9 73.8 118.9 74.3 118.9 74.9 118.5 75.4 118 75.4 117.5 75.4 116.4 75.6 115.6 75.9 114.8 76.2 113.1 75.5 111.8 74.3L109.4 72.3ZM120.4 74.7C120.6 74.8 120.9 75 121.4 75.4 122.5 76.3 122.9 76.3 122.9 75.4 122.9 74.8 123.4 74.6 124 75 124.8 75.5 124.6 76.1 123.3 77 120.8 78.9 119.9 78.7 119.9 76.3 119.9 75.1 120 74.7 120.4 74.7ZM135.4 78.4C136.3 78.4 136.7 78.8 136.4 79.4 135.6 80.7 133.9 80.7 133.9 79.4 133.9 78.8 134.6 78.4 135.4 78.4ZM111.9 94.4C112.4 94.4 112.9 96.6 112.9 99.4 112.9 104.4 112.7 104.9 111.6 103.7 110.5 102.6 110.8 94.4 111.9 94.4ZM104.3 107.7C104.6 107.7 104.9 107.9 104.9 108.3 104.9 108.9 104.4 109.4 103.9 109.4 102.6 109.4 102.6 108.7 103.9 107.9 104 107.8 104.2 107.7 104.3 107.7ZM112.3 109.8C112.4 109.8 112.5 109.9 112.6 110.1 112.8 110.8 112.8 112.1 112.6 113.1 112.3 114.1 112.1 113.5 112.1 111.9 112.1 110.6 112.2 109.9 112.3 109.8ZM99.9 110.4C100.4 110.4 100.9 110.6 100.9 110.8 100.9 111.1 100.4 111.5 99.9 111.9 99.3 112.2 98.9 112 98.9 111.4 98.9 110.9 99.3 110.4 99.9 110.4ZM94.9 112.4C95.4 112.4 95.9 112.6 95.9 112.8 95.9 113.1 95.4 113.5 94.9 113.9 94.3 114.2 93.9 114 93.9 113.4 93.9 112.9 94.3 112.4 94.9 112.4ZM74.1 112.4C74.8 112.5 75.6 112.9 76.3 113.8 78.3 116.3 81.7 116.6 83.5 114.5 85.2 112.5 87.5 112.5 86.3 114.4 86 114.9 86.4 115.4 87.3 115.4 88.1 115.4 89.1 114.9 89.4 114.4 90.2 113.1 91.9 113.1 91.9 114.4 91.9 114.9 90.7 115.9 89.1 116.5 87.6 117 83.8 117.7 80.7 118 75.7 118.5 74.9 118.3 74 116.5 73.4 115.4 72.9 114 72.9 113.4 72.9 112.7 73.4 112.3 74.1 112.4ZM165.8 165.4C166.4 165.4 166.9 165.8 166.9 166.4 166.9 167.7 166.2 167.7 165.4 166.4 165.1 165.8 165.3 165.4 165.8 165.4ZM82.2 177.4C82.9 177.4 81.7 178.3 79.6 179.4 76 181.3 73.9 181.9 73.9 180.9 73.9 180.3 80.8 177.4 82.2 177.4ZM168.6 220.1C169.7 220.1 170.8 220.2 171.5 220.5 172.8 221 172.2 221.2 169.1 221.3 166.8 221.3 164.9 221.2 164.9 221 164.9 220.4 166.8 220.1 168.6 220.1ZM191 225.5C191.3 225.5 191.7 225.5 192.1 225.7 192.9 226 192.6 226.2 191.5 226.3 190.4 226.3 189.8 226.1 190.1 225.8 190.3 225.6 190.6 225.5 191 225.5ZM191.2 250.4C191.3 250.4 191.3 250.4 191.4 250.4 191.9 250.4 193.1 250.8 193.9 251.4 194.7 251.9 194.9 252.3 194.4 252.3 193.8 252.3 192.7 251.9 191.9 251.4 191.2 250.9 190.9 250.5 191.2 250.4ZM17 290.8C17.5 290.7 17.6 291 17.4 291.4 17 291.9 16.4 292.4 15.8 292.4 14.4 292.4 14.7 291.6 16.4 291 16.7 290.9 16.9 290.8 17 290.8ZM33.2 299.4L35.5 301.8 37.7 304.3 39.4 301.7C41 299.3 41.2 299.2 42.1 300.8 42.9 302.2 43.3 302.3 43.9 301.3 44.4 300.5 44.9 300.7 45.3 302.2 46 304.4 47.9 305.2 47.9 303.4 47.9 302.8 49.1 302.4 50.6 302.4H53.4L50.4 304C48.5 305 45.9 305.4 43.1 305.1 40.8 304.8 39.2 305 39.5 305.5 40.3 306.8 38.8 306.5 35.7 304.9 34.1 304.1 32.9 303.9 32.7 304.5 32.5 305 31.5 305.2 30.6 304.8 28.9 304.1 28.9 303.9 31 301.8L33.2 299.4ZM56.4 300.5C56.6 300.5 56.8 300.5 57 300.6 57.8 300.8 57.3 301.3 56 301.6 54.3 302.1 53.9 301.9 54.6 301.2 55.1 300.8 55.8 300.5 56.4 300.5ZM46.3 341.7C46.6 341.7 46.9 341.9 46.9 342.3 46.9 342.9 46.4 343.4 45.9 343.4 44.6 343.4 44.6 342.7 45.9 341.9 46 341.8 46.2 341.7 46.3 341.7Z" fill="black"/></svg>